<mxfile host="Electron" agent="Mozilla/5.0 (Windows NT 10.0; Win64; x64) AppleWebKit/537.36 (KHTML, like Gecko) draw.io/27.0.5 Chrome/134.0.6998.205 Electron/35.3.0 Safari/537.36" version="27.0.5">
  <diagram name="Page-1" id="sTx_muqtt5lNOy0Wnd3z">
    <mxGraphModel dx="983" dy="586" grid="1" gridSize="10" guides="1" tooltips="1" connect="1" arrows="1" fold="1" page="1" pageScale="1" pageWidth="827" pageHeight="1169" math="1" shadow="0">
      <root>
        <mxCell id="0" />
        <mxCell id="1" parent="0" />
        <mxCell id="rva6OmslbYcHDwHbl5wn-108" value="list" style="rounded=0;whiteSpace=wrap;html=1;" vertex="1" parent="1">
          <mxGeometry x="320" y="160" width="120" height="30" as="geometry" />
        </mxCell>
        <mxCell id="rva6OmslbYcHDwHbl5wn-109" value="" style="rounded=0;whiteSpace=wrap;html=1;" vertex="1" parent="1">
          <mxGeometry x="320" y="190" width="120" height="30" as="geometry" />
        </mxCell>
        <mxCell id="rva6OmslbYcHDwHbl5wn-110" value="" style="rounded=0;whiteSpace=wrap;html=1;" vertex="1" parent="1">
          <mxGeometry x="320" y="220" width="120" height="30" as="geometry" />
        </mxCell>
        <mxCell id="rva6OmslbYcHDwHbl5wn-111" value="0x08" style="rounded=0;whiteSpace=wrap;html=1;" vertex="1" parent="1">
          <mxGeometry x="320" y="250" width="120" height="30" as="geometry" />
        </mxCell>
        <mxCell id="rva6OmslbYcHDwHbl5wn-167" style="edgeStyle=orthogonalEdgeStyle;rounded=0;orthogonalLoop=1;jettySize=auto;html=1;exitX=1;exitY=0.5;exitDx=0;exitDy=0;entryX=1;entryY=0.5;entryDx=0;entryDy=0;curved=1;" edge="1" parent="1" source="rva6OmslbYcHDwHbl5wn-112" target="rva6OmslbYcHDwHbl5wn-117">
          <mxGeometry relative="1" as="geometry">
            <Array as="points">
              <mxPoint x="500" y="295" />
              <mxPoint x="500" y="445" />
            </Array>
          </mxGeometry>
        </mxCell>
        <mxCell id="rva6OmslbYcHDwHbl5wn-112" value="0x09" style="rounded=0;whiteSpace=wrap;html=1;" vertex="1" parent="1">
          <mxGeometry x="320" y="280" width="120" height="30" as="geometry" />
        </mxCell>
        <mxCell id="rva6OmslbYcHDwHbl5wn-113" value="" style="rounded=0;whiteSpace=wrap;html=1;" vertex="1" parent="1">
          <mxGeometry x="320" y="310" width="120" height="30" as="geometry" />
        </mxCell>
        <mxCell id="rva6OmslbYcHDwHbl5wn-114" value="" style="rounded=0;whiteSpace=wrap;html=1;" vertex="1" parent="1">
          <mxGeometry x="320" y="340" width="120" height="30" as="geometry" />
        </mxCell>
        <mxCell id="rva6OmslbYcHDwHbl5wn-115" value="" style="rounded=0;whiteSpace=wrap;html=1;" vertex="1" parent="1">
          <mxGeometry x="320" y="370" width="120" height="30" as="geometry" />
        </mxCell>
        <mxCell id="rva6OmslbYcHDwHbl5wn-116" value="1" style="rounded=0;whiteSpace=wrap;html=1;" vertex="1" parent="1">
          <mxGeometry x="320" y="400" width="120" height="30" as="geometry" />
        </mxCell>
        <mxCell id="rva6OmslbYcHDwHbl5wn-117" value="2" style="rounded=0;whiteSpace=wrap;html=1;" vertex="1" parent="1">
          <mxGeometry x="320" y="430" width="120" height="30" as="geometry" />
        </mxCell>
        <mxCell id="rva6OmslbYcHDwHbl5wn-118" value="" style="rounded=0;whiteSpace=wrap;html=1;" vertex="1" parent="1">
          <mxGeometry x="320" y="460" width="120" height="30" as="geometry" />
        </mxCell>
        <mxCell id="rva6OmslbYcHDwHbl5wn-119" value="" style="rounded=0;whiteSpace=wrap;html=1;" vertex="1" parent="1">
          <mxGeometry x="320" y="490" width="120" height="30" as="geometry" />
        </mxCell>
        <mxCell id="rva6OmslbYcHDwHbl5wn-120" value="0x00" style="text;html=1;align=center;verticalAlign=middle;resizable=0;points=[];autosize=1;strokeColor=none;fillColor=none;" vertex="1" parent="1">
          <mxGeometry x="275" y="160" width="50" height="30" as="geometry" />
        </mxCell>
        <mxCell id="rva6OmslbYcHDwHbl5wn-121" value="0x01" style="text;html=1;align=center;verticalAlign=middle;resizable=0;points=[];autosize=1;strokeColor=none;fillColor=none;" vertex="1" parent="1">
          <mxGeometry x="275" y="190" width="50" height="30" as="geometry" />
        </mxCell>
        <mxCell id="rva6OmslbYcHDwHbl5wn-122" value="0x02" style="text;html=1;align=center;verticalAlign=middle;resizable=0;points=[];autosize=1;strokeColor=none;fillColor=none;" vertex="1" parent="1">
          <mxGeometry x="275" y="220" width="50" height="30" as="geometry" />
        </mxCell>
        <mxCell id="rva6OmslbYcHDwHbl5wn-123" value="0x03" style="text;html=1;align=center;verticalAlign=middle;resizable=0;points=[];autosize=1;strokeColor=none;fillColor=none;" vertex="1" parent="1">
          <mxGeometry x="275" y="250" width="50" height="30" as="geometry" />
        </mxCell>
        <mxCell id="rva6OmslbYcHDwHbl5wn-124" value="0x04" style="text;html=1;align=center;verticalAlign=middle;resizable=0;points=[];autosize=1;strokeColor=none;fillColor=none;" vertex="1" parent="1">
          <mxGeometry x="275" y="280" width="50" height="30" as="geometry" />
        </mxCell>
        <mxCell id="rva6OmslbYcHDwHbl5wn-125" value="0x05" style="text;html=1;align=center;verticalAlign=middle;resizable=0;points=[];autosize=1;strokeColor=none;fillColor=none;" vertex="1" parent="1">
          <mxGeometry x="275" y="310" width="50" height="30" as="geometry" />
        </mxCell>
        <mxCell id="rva6OmslbYcHDwHbl5wn-126" value="0x06" style="text;html=1;align=center;verticalAlign=middle;resizable=0;points=[];autosize=1;strokeColor=none;fillColor=none;" vertex="1" parent="1">
          <mxGeometry x="275" y="340" width="50" height="30" as="geometry" />
        </mxCell>
        <mxCell id="rva6OmslbYcHDwHbl5wn-127" value="0x07" style="text;html=1;align=center;verticalAlign=middle;resizable=0;points=[];autosize=1;strokeColor=none;fillColor=none;" vertex="1" parent="1">
          <mxGeometry x="275" y="370" width="50" height="30" as="geometry" />
        </mxCell>
        <mxCell id="rva6OmslbYcHDwHbl5wn-128" value="0x08" style="text;html=1;align=center;verticalAlign=middle;resizable=0;points=[];autosize=1;strokeColor=none;fillColor=none;" vertex="1" parent="1">
          <mxGeometry x="275" y="400" width="50" height="30" as="geometry" />
        </mxCell>
        <mxCell id="rva6OmslbYcHDwHbl5wn-129" value="0x09" style="text;html=1;align=center;verticalAlign=middle;resizable=0;points=[];autosize=1;strokeColor=none;fillColor=none;" vertex="1" parent="1">
          <mxGeometry x="275" y="430" width="50" height="30" as="geometry" />
        </mxCell>
        <mxCell id="rva6OmslbYcHDwHbl5wn-130" value="0x0A" style="text;html=1;align=center;verticalAlign=middle;resizable=0;points=[];autosize=1;strokeColor=none;fillColor=none;" vertex="1" parent="1">
          <mxGeometry x="275" y="460" width="50" height="30" as="geometry" />
        </mxCell>
        <mxCell id="rva6OmslbYcHDwHbl5wn-131" value="0x0B" style="text;html=1;align=center;verticalAlign=middle;resizable=0;points=[];autosize=1;strokeColor=none;fillColor=none;" vertex="1" parent="1">
          <mxGeometry x="275" y="490" width="50" height="30" as="geometry" />
        </mxCell>
        <mxCell id="rva6OmslbYcHDwHbl5wn-165" value="" style="endArrow=classic;html=1;rounded=0;exitX=1;exitY=0.5;exitDx=0;exitDy=0;entryX=1;entryY=0.5;entryDx=0;entryDy=0;curved=1;" edge="1" parent="1" source="rva6OmslbYcHDwHbl5wn-111" target="rva6OmslbYcHDwHbl5wn-116">
          <mxGeometry width="50" height="50" relative="1" as="geometry">
            <mxPoint x="380" y="340" as="sourcePoint" />
            <mxPoint x="430" y="290" as="targetPoint" />
            <Array as="points">
              <mxPoint x="480" y="265" />
              <mxPoint x="480" y="330" />
              <mxPoint x="480" y="415" />
            </Array>
          </mxGeometry>
        </mxCell>
        <mxCell id="rva6OmslbYcHDwHbl5wn-200" style="edgeStyle=orthogonalEdgeStyle;rounded=0;orthogonalLoop=1;jettySize=auto;html=1;entryX=1;entryY=0.25;entryDx=0;entryDy=0;curved=1;" edge="1" parent="1" source="rva6OmslbYcHDwHbl5wn-168" target="rva6OmslbYcHDwHbl5wn-197">
          <mxGeometry relative="1" as="geometry">
            <Array as="points">
              <mxPoint x="760" y="175" />
              <mxPoint x="760" y="437" />
            </Array>
          </mxGeometry>
        </mxCell>
        <mxCell id="rva6OmslbYcHDwHbl5wn-168" value="list" style="rounded=0;whiteSpace=wrap;html=1;" vertex="1" parent="1">
          <mxGeometry x="615" y="160" width="120" height="30" as="geometry" />
        </mxCell>
        <mxCell id="rva6OmslbYcHDwHbl5wn-169" value="$$\vdots$$" style="rounded=0;whiteSpace=wrap;html=1;" vertex="1" parent="1">
          <mxGeometry x="615" y="190" width="120" height="90" as="geometry" />
        </mxCell>
        <mxCell id="rva6OmslbYcHDwHbl5wn-177" value="1" style="rounded=0;whiteSpace=wrap;html=1;" vertex="1" parent="1">
          <mxGeometry x="615" y="280" width="120" height="30" as="geometry" />
        </mxCell>
        <mxCell id="rva6OmslbYcHDwHbl5wn-178" value="2" style="rounded=0;whiteSpace=wrap;html=1;" vertex="1" parent="1">
          <mxGeometry x="615" y="310" width="120" height="30" as="geometry" />
        </mxCell>
        <mxCell id="rva6OmslbYcHDwHbl5wn-202" style="edgeStyle=orthogonalEdgeStyle;rounded=0;orthogonalLoop=1;jettySize=auto;html=1;entryX=1;entryY=0.5;entryDx=0;entryDy=0;curved=1;" edge="1" parent="1" source="rva6OmslbYcHDwHbl5wn-179" target="rva6OmslbYcHDwHbl5wn-178">
          <mxGeometry relative="1" as="geometry">
            <Array as="points">
              <mxPoint x="820" y="475" />
              <mxPoint x="820" y="325" />
            </Array>
          </mxGeometry>
        </mxCell>
        <mxCell id="rva6OmslbYcHDwHbl5wn-179" value="0x09" style="rounded=0;whiteSpace=wrap;html=1;" vertex="1" parent="1">
          <mxGeometry x="615" y="460" width="120" height="30" as="geometry" />
        </mxCell>
        <mxCell id="rva6OmslbYcHDwHbl5wn-180" value="" style="rounded=0;whiteSpace=wrap;html=1;" vertex="1" parent="1">
          <mxGeometry x="615" y="490" width="120" height="30" as="geometry" />
        </mxCell>
        <mxCell id="rva6OmslbYcHDwHbl5wn-181" value="0x00" style="text;html=1;align=center;verticalAlign=middle;resizable=0;points=[];autosize=1;strokeColor=none;fillColor=none;" vertex="1" parent="1">
          <mxGeometry x="570" y="160" width="50" height="30" as="geometry" />
        </mxCell>
        <mxCell id="rva6OmslbYcHDwHbl5wn-185" value="0x08" style="text;html=1;align=center;verticalAlign=middle;resizable=0;points=[];autosize=1;strokeColor=none;fillColor=none;" vertex="1" parent="1">
          <mxGeometry x="570" y="280" width="50" height="30" as="geometry" />
        </mxCell>
        <mxCell id="rva6OmslbYcHDwHbl5wn-186" value="0x09" style="text;html=1;align=center;verticalAlign=middle;resizable=0;points=[];autosize=1;strokeColor=none;fillColor=none;" vertex="1" parent="1">
          <mxGeometry x="570" y="310" width="50" height="30" as="geometry" />
        </mxCell>
        <mxCell id="rva6OmslbYcHDwHbl5wn-191" value="0x66" style="text;html=1;align=center;verticalAlign=middle;resizable=0;points=[];autosize=1;strokeColor=none;fillColor=none;" vertex="1" parent="1">
          <mxGeometry x="570" y="430" width="50" height="30" as="geometry" />
        </mxCell>
        <mxCell id="rva6OmslbYcHDwHbl5wn-192" value="0x67" style="text;html=1;align=center;verticalAlign=middle;resizable=0;points=[];autosize=1;strokeColor=none;fillColor=none;" vertex="1" parent="1">
          <mxGeometry x="570" y="460" width="50" height="30" as="geometry" />
        </mxCell>
        <mxCell id="rva6OmslbYcHDwHbl5wn-201" style="edgeStyle=orthogonalEdgeStyle;rounded=0;orthogonalLoop=1;jettySize=auto;html=1;entryX=1;entryY=0.5;entryDx=0;entryDy=0;curved=1;" edge="1" parent="1" source="rva6OmslbYcHDwHbl5wn-197" target="rva6OmslbYcHDwHbl5wn-177">
          <mxGeometry relative="1" as="geometry">
            <Array as="points">
              <mxPoint x="780" y="445" />
              <mxPoint x="780" y="295" />
            </Array>
          </mxGeometry>
        </mxCell>
        <mxCell id="rva6OmslbYcHDwHbl5wn-197" value="0x08" style="rounded=0;whiteSpace=wrap;html=1;" vertex="1" parent="1">
          <mxGeometry x="615" y="430" width="120" height="30" as="geometry" />
        </mxCell>
        <mxCell id="rva6OmslbYcHDwHbl5wn-198" value="$$\vdots$$" style="rounded=0;whiteSpace=wrap;html=1;" vertex="1" parent="1">
          <mxGeometry x="615" y="340" width="120" height="90" as="geometry" />
        </mxCell>
        <mxCell id="rva6OmslbYcHDwHbl5wn-199" value="" style="endArrow=classic;html=1;rounded=0;exitX=1;exitY=0.5;exitDx=0;exitDy=0;entryX=1.001;entryY=0.323;entryDx=0;entryDy=0;entryPerimeter=0;curved=1;" edge="1" parent="1" source="rva6OmslbYcHDwHbl5wn-108" target="rva6OmslbYcHDwHbl5wn-111">
          <mxGeometry width="50" height="50" relative="1" as="geometry">
            <mxPoint x="610" y="370" as="sourcePoint" />
            <mxPoint x="660" y="320" as="targetPoint" />
            <Array as="points">
              <mxPoint x="480" y="175" />
              <mxPoint x="480" y="220" />
              <mxPoint x="480" y="260" />
            </Array>
          </mxGeometry>
        </mxCell>
        <mxCell id="rva6OmslbYcHDwHbl5wn-203" value="0x68" style="text;html=1;align=center;verticalAlign=middle;resizable=0;points=[];autosize=1;strokeColor=none;fillColor=none;" vertex="1" parent="1">
          <mxGeometry x="570" y="490" width="50" height="30" as="geometry" />
        </mxCell>
      </root>
    </mxGraphModel>
  </diagram>
</mxfile>
